<svg width="55" height="55" viewBox="0 0 55 55" fill="none" xmlns="http://www.w3.org/2000/svg">
<rect width="55" height="55" rx="27.5" fill="#EB5B00"/>
<path d="M32.4889 32.3549C32.7177 32.5846 32.8734 32.8769 32.9363 33.195C32.9991 33.5131 32.9663 33.8427 32.842 34.1421C32.7176 34.4416 32.5073 34.6975 32.2377 34.8775C31.968 35.0575 31.651 35.1536 31.3268 35.1536C31.0025 35.1536 30.6855 35.0575 30.4159 34.8775C30.1462 34.6975 29.9359 34.4416 29.8116 34.1421C29.6872 33.8427 29.6544 33.5131 29.7172 33.195C29.7801 32.8769 29.9358 32.5846 30.1647 32.3549C30.3171 32.2019 30.4982 32.0806 30.6976 31.9978C30.897 31.915 31.1108 31.8723 31.3268 31.8723C31.5427 31.8723 31.7565 31.915 31.9559 31.9978C32.1553 32.0806 32.3365 32.2019 32.4889 32.3549ZM21.4147 31.2611C21.1858 31.4908 21.0301 31.7831 20.9672 32.1012C20.9044 32.4193 20.9372 32.7489 21.0616 33.0484C21.1859 33.3478 21.3962 33.6037 21.6659 33.7837C21.9355 33.9638 22.2525 34.0598 22.5768 34.0598C22.901 34.0598 23.218 33.9638 23.4877 33.7837C23.7573 33.6037 23.9676 33.3478 24.092 33.0484C24.2163 32.7489 24.2491 32.4193 24.1863 32.1012C24.1234 31.7831 23.9677 31.4908 23.7389 31.2611C23.5865 31.1086 23.4056 30.9876 23.2064 30.905C23.0072 30.8225 22.7937 30.78 22.5781 30.78C22.3625 30.78 22.149 30.8225 21.9499 30.905C21.7507 30.9876 21.5698 31.1086 21.4174 31.2611H21.4147ZM22.6451 25.9291C22.874 25.6994 23.0297 25.4071 23.0925 25.089C23.1554 24.7709 23.1225 24.4413 22.9982 24.1419C22.8739 23.8424 22.6636 23.5865 22.3939 23.4065C22.1242 23.2265 21.8073 23.1304 21.483 23.1304C21.1588 23.1304 20.8418 23.2265 20.5721 23.4065C20.3024 23.5865 20.0922 23.8424 19.9678 24.1419C19.8435 24.4413 19.8107 24.7709 19.8735 25.089C19.9363 25.4071 20.092 25.6994 20.3209 25.9291C20.4735 26.0819 20.6548 26.203 20.8543 26.2856C21.0538 26.3682 21.2677 26.4105 21.4836 26.4103C21.6995 26.41 21.9133 26.3671 22.1126 26.2841C22.3119 26.2011 22.4929 26.0795 22.6451 25.9264V25.9291ZM29.2076 25.7924C28.978 25.5635 28.6856 25.4078 28.3675 25.345C28.0494 25.2821 27.7198 25.315 27.4204 25.4393C27.1209 25.5636 26.865 25.7739 26.685 26.0436C26.505 26.3133 26.4089 26.6302 26.4089 26.9545C26.4089 27.2787 26.505 27.5957 26.685 27.8654C26.865 28.1351 27.1209 28.3453 27.4204 28.4697C27.7198 28.594 28.0494 28.6269 28.3675 28.564C28.6856 28.5012 28.978 28.3455 29.2076 28.1166C29.3606 27.9642 29.4819 27.7831 29.5647 27.5836C29.6475 27.3842 29.6902 27.1704 29.6902 26.9545C29.6902 26.7386 29.6475 26.5248 29.5647 26.3253C29.4819 26.1259 29.3606 25.9448 29.2076 25.7924ZM41.7188 27.5C41.7188 30.3122 40.8848 33.0613 39.3225 35.3995C37.7601 37.7378 35.5394 39.5602 32.9413 40.6364C30.3431 41.7126 27.4842 41.9942 24.7261 41.4455C21.9679 40.8969 19.4344 39.5427 17.4458 37.5542C15.4573 35.5656 14.1031 33.0321 13.5545 30.2739C13.0058 27.5158 13.2874 24.6569 14.3636 22.0587C15.4398 19.4606 17.2622 17.2399 19.6005 15.6775C21.9388 14.1152 24.6878 13.2813 27.5 13.2812C27.7901 13.2812 28.0683 13.3965 28.2734 13.6016C28.4785 13.8067 28.5938 14.0849 28.5938 14.375C28.5938 15.8254 29.1699 17.2164 30.1955 18.242C31.2211 19.2676 32.6121 19.8438 34.0625 19.8438C34.3526 19.8438 34.6308 19.959 34.8359 20.1641C35.041 20.3692 35.1563 20.6474 35.1563 20.9375C35.1563 22.3879 35.7324 23.7789 36.758 24.8045C37.7836 25.8301 39.1746 26.4062 40.625 26.4062C40.9151 26.4062 41.1933 26.5215 41.3984 26.7266C41.6035 26.9317 41.7188 27.2099 41.7188 27.5ZM39.4889 28.5104C37.8508 28.2617 36.3371 27.4896 35.1742 26.3095C34.0113 25.1293 33.2616 23.6045 33.0371 21.9629C31.3955 21.7384 29.8707 20.9887 28.6905 19.8258C27.5104 18.6629 26.7383 17.1492 26.4897 15.5111C24.2043 15.7038 22.0216 16.5456 20.1988 17.9374C18.3759 19.3292 16.9888 21.2131 16.201 23.367C15.4132 25.5209 15.2574 27.8551 15.752 30.0946C16.2466 32.3341 17.371 34.3855 18.9928 36.0073C20.6145 37.629 22.6659 38.7534 24.9054 39.248C27.1449 39.7426 29.4791 39.5868 31.633 38.799C33.7869 38.0112 35.6708 36.6241 37.0626 34.8013C38.4544 32.9784 39.2962 30.7957 39.4889 28.5104Z" fill="white"/>
</svg>
