<svg width="55" height="55" viewBox="0 0 55 55" fill="none" xmlns="http://www.w3.org/2000/svg">
<rect width="55" height="55" rx="27.5" fill="#EB5B00"/>
<path d="M40.625 25.3125H14.375C14.0849 25.3125 13.8067 25.4277 13.6016 25.6329C13.3965 25.838 13.2813 26.1162 13.2812 26.4063C13.2861 29.0074 14.0019 31.5577 15.3513 33.7813C16.7008 36.005 18.6325 37.8175 20.9375 39.0227V39.5313C20.9375 40.1114 21.168 40.6678 21.5782 41.0781C21.9884 41.4883 22.5448 41.7188 23.125 41.7188H31.875C32.4552 41.7188 33.0116 41.4883 33.4218 41.0781C33.832 40.6678 34.0625 40.1114 34.0625 39.5313V39.0227C36.3675 37.8175 38.2992 36.005 39.6487 33.7813C40.9981 31.5577 41.7139 29.0074 41.7188 26.4063C41.7188 26.1162 41.6035 25.838 41.3984 25.6329C41.1933 25.4277 40.9151 25.3125 40.625 25.3125ZM32.5121 37.3438C32.322 37.4311 32.1609 37.5712 32.0479 37.7474C31.935 37.9236 31.875 38.1284 31.875 38.3377V39.5313H23.125V38.3404C23.1255 38.1307 23.0658 37.9253 22.9528 37.7485C22.8399 37.5718 22.6785 37.4313 22.4879 37.3438C20.5644 36.4586 18.9076 35.0832 17.6837 33.3553C16.4599 31.6275 15.712 29.6082 15.5152 27.5H39.4807C39.2843 29.6078 38.537 31.6268 37.3139 33.3546C36.0908 35.0824 34.4348 36.4581 32.5121 37.3438ZM21.1795 17.5195C21.9109 16.609 22.0914 15.9938 22.0162 15.7231C21.9588 15.5194 21.6867 15.4141 21.684 15.4141C21.4364 15.3327 21.226 15.1656 21.0907 14.9429C20.9554 14.7202 20.904 14.4564 20.9459 14.1992C20.9878 13.942 21.1202 13.7082 21.3191 13.5399C21.5181 13.3716 21.7706 13.2799 22.0312 13.2813C22.1416 13.2814 22.2512 13.298 22.3566 13.3305C22.4934 13.3729 23.7115 13.7858 24.1053 15.075C24.4416 16.1783 24.0301 17.4608 22.883 18.8881C22.1516 19.7986 21.9711 20.4139 22.0463 20.6846C22.1037 20.8883 22.3703 20.9908 22.373 20.9922C22.6202 21.0734 22.8303 21.2401 22.9656 21.4622C23.1009 21.6844 23.1527 21.9475 23.1115 22.2043C23.0703 22.4612 22.939 22.695 22.741 22.8637C22.543 23.0324 22.2914 23.1251 22.0312 23.125C21.9209 23.1249 21.8113 23.1083 21.7059 23.0758C21.5691 23.0334 20.351 22.6205 19.9572 21.3313C19.6209 20.2279 20.0324 18.9455 21.1795 17.5195ZM26.6482 17.5195C27.3797 16.609 27.5602 15.9938 27.485 15.7231C27.4275 15.5194 27.1555 15.4141 27.1527 15.4141C26.9052 15.3327 26.6948 15.1656 26.5594 14.9429C26.4241 14.7202 26.3728 14.4564 26.4147 14.1992C26.4566 13.942 26.5889 13.7082 26.7879 13.5399C26.9869 13.3716 27.2394 13.2799 27.5 13.2813C27.6103 13.2814 27.72 13.298 27.8254 13.3305C27.9621 13.3729 29.1803 13.7858 29.574 15.075C29.9104 16.1783 29.4988 17.4608 28.3518 18.8881C27.6203 19.7986 27.4398 20.4139 27.515 20.6846C27.5725 20.8883 27.8391 20.9908 27.8418 20.9922C28.0889 21.0734 28.299 21.2401 28.4343 21.4622C28.5697 21.6844 28.6214 21.9475 28.5802 22.2043C28.5391 22.4612 28.4077 22.695 28.2097 22.8637C28.0118 23.0324 27.7601 23.1251 27.5 23.125C27.3897 23.1249 27.28 23.1083 27.1746 23.0758C27.0379 23.0334 25.8197 22.6205 25.426 21.3313C25.0896 20.2279 25.5012 18.9455 26.6482 17.5195ZM32.117 17.5195C32.8484 16.609 33.0289 15.9938 32.9537 15.7231C32.8963 15.5194 32.6242 15.4141 32.6215 15.4141C32.3739 15.3327 32.1635 15.1656 32.0282 14.9429C31.8929 14.7202 31.8415 14.4564 31.8834 14.1992C31.9253 13.942 32.0577 13.7082 32.2566 13.5399C32.4556 13.3716 32.7081 13.2799 32.9688 13.2813C33.0791 13.2814 33.1887 13.298 33.2941 13.3305C33.4309 13.3729 34.649 13.7858 35.0428 15.075C35.3791 16.1783 34.9676 17.4608 33.8205 18.8881C33.0891 19.7986 32.9086 20.4139 32.9838 20.6846C33.0412 20.8883 33.3078 20.9908 33.3105 20.9922C33.5577 21.0734 33.7678 21.2401 33.9031 21.4622C34.0384 21.6844 34.0902 21.9475 34.049 22.2043C34.0078 22.4612 33.8765 22.695 33.6785 22.8637C33.4805 23.0324 33.2289 23.1251 32.9688 23.125C32.8584 23.1249 32.7488 23.1083 32.6434 23.0758C32.5066 23.0334 31.2885 22.6205 30.8947 21.3313C30.5584 20.2279 30.9699 18.9455 32.117 17.5195Z" fill="white"/>
</svg>
