<svg width="55" height="55" viewBox="0 0 55 55" fill="none" xmlns="http://www.w3.org/2000/svg">
<rect width="55" height="55" rx="27.5" fill="#EB5B00"/>
<path d="M40.625 24.2188H39.4807C39.2058 21.2313 37.8248 18.4543 35.6084 16.4324C33.3919 14.4105 30.5001 13.2897 27.5 13.2897C24.4999 13.2897 21.6081 14.4105 19.3916 16.4324C17.1752 18.4543 15.7942 21.2313 15.5193 24.2188H14.375C14.0849 24.2188 13.8067 24.334 13.6016 24.5392C13.3965 24.7443 13.2813 25.0225 13.2812 25.3126C13.2861 27.9137 14.0019 30.4639 15.3513 32.6876C16.7008 34.9113 18.6325 36.7238 20.9375 37.929V38.4376C20.9375 39.0177 21.168 39.5741 21.5782 39.9844C21.9884 40.3946 22.5448 40.6251 23.125 40.6251H31.875C32.4552 40.6251 33.0116 40.3946 33.4218 39.9844C33.832 39.5741 34.0625 39.0177 34.0625 38.4376V37.929C36.3675 36.7238 38.2992 34.9113 39.6487 32.6876C40.9981 30.4639 41.7139 27.9137 41.7188 25.3126C41.7188 25.0225 41.6035 24.7443 41.3984 24.5392C41.1933 24.334 40.9151 24.2188 40.625 24.2188ZM37.2809 24.2188H30.2508C31.5768 22.2294 33.583 20.792 35.8932 20.176C36.6485 21.4047 37.1224 22.7853 37.2809 24.2188ZM33.718 17.6878C33.9686 17.8928 34.2088 18.1093 34.4385 18.3372C31.5269 19.3614 29.1208 21.4664 27.7188 24.2161H23.6855C24.3692 22.2999 25.6277 20.6414 27.2892 19.4673C28.9508 18.2933 30.9343 17.6608 32.9688 17.6563C33.2189 17.6563 33.4691 17.6686 33.718 17.6878ZM27.5 15.4688C28.3777 15.4694 29.2513 15.5876 30.0977 15.8202C28.0365 16.3315 26.1466 17.377 24.6183 18.8515C23.0901 20.326 21.9775 22.1773 21.3928 24.2188H17.7191C17.9905 21.8137 19.1374 19.5926 20.9412 17.9789C22.745 16.3652 25.0797 15.4717 27.5 15.4688ZM32.5121 36.2501C32.3213 36.3377 32.1598 36.4784 32.0468 36.6554C31.9338 36.8324 31.8742 37.0381 31.875 37.2481V38.4376H23.125V37.2481C23.1258 37.0381 23.0662 36.8324 22.9532 36.6554C22.8402 36.4784 22.6787 36.3377 22.4879 36.2501C20.5644 35.3649 18.9076 33.9895 17.6837 32.2616C16.4599 30.5338 15.712 28.5145 15.5152 26.4063H39.4807C39.2843 28.5141 38.537 30.5331 37.3139 32.2609C36.0908 33.9887 34.4348 35.3644 32.5121 36.2501Z" fill="white"/>
</svg>
