<svg width="55" height="55" viewBox="0 0 55 55" fill="none" xmlns="http://www.w3.org/2000/svg">
<rect width="55" height="55" rx="27.5" fill="#EB5B00"/>
<path d="M16.5721 24.2188H38.4279C38.7554 24.2204 39.079 24.1485 39.3749 24.0084C39.6709 23.8684 39.9316 23.6636 40.1379 23.4093C40.3442 23.155 40.4907 22.8577 40.5667 22.5392C40.6428 22.2207 40.6463 21.8892 40.5771 21.5691C39.5613 16.7676 34.0625 13.2812 27.5 13.2812C20.9375 13.2812 15.4387 16.7676 14.4229 21.5691C14.3537 21.8892 14.3572 22.2207 14.4333 22.5392C14.5093 22.8577 14.6558 23.155 14.8621 23.4093C15.0684 23.6636 15.3291 23.8684 15.6251 24.0084C15.921 24.1485 16.2446 24.2204 16.5721 24.2188ZM27.5 15.4688C32.9441 15.4688 37.6459 18.2865 38.4279 22.0312H16.5721L16.5625 22.0217C17.3541 18.2865 22.0559 15.4688 27.5 15.4688ZM41.3441 30.8469L35.7209 32.8977L30.6445 30.8592C30.3839 30.755 30.0931 30.755 29.8324 30.8592L24.7738 32.884L19.707 30.8592C19.4576 30.7595 19.1802 30.7551 18.9277 30.8469L12.9121 33.0344C12.6579 33.1463 12.4557 33.3507 12.3467 33.6063C12.2377 33.8618 12.23 34.1492 12.3252 34.4102C12.4204 34.6711 12.6113 34.8861 12.8592 35.0115C13.1071 35.1368 13.3934 35.1632 13.66 35.0852L15.4688 34.4303V35.1562C15.4688 36.6067 16.0449 37.9977 17.0705 39.0232C18.0961 40.0488 19.4871 40.625 20.9375 40.625H34.0625C35.5129 40.625 36.9039 40.0488 37.9295 39.0232C38.9551 37.9977 39.5312 36.6067 39.5312 35.1562V33.8342L42.092 32.9031C42.2356 32.8611 42.369 32.7901 42.4841 32.6944C42.5991 32.5988 42.6933 32.4805 42.7608 32.347C42.8283 32.2135 42.8677 32.0675 42.8766 31.9182C42.8855 31.7688 42.8636 31.6192 42.8123 31.4787C42.7611 31.3381 42.6815 31.2096 42.5786 31.101C42.4757 30.9924 42.3516 30.9061 42.214 30.8474C42.0763 30.7887 41.9281 30.7588 41.7785 30.7597C41.6289 30.7605 41.4811 30.7921 41.3441 30.8523V30.8469ZM37.3438 35.1562C37.3438 36.0265 36.998 36.8611 36.3827 37.4764C35.7673 38.0918 34.9327 38.4375 34.0625 38.4375H20.9375C20.0673 38.4375 19.2327 38.0918 18.6173 37.4764C18.002 36.8611 17.6562 36.0265 17.6562 35.1562V33.6359L19.2791 33.0453L24.3555 35.0783C24.6161 35.1825 24.9069 35.1825 25.1676 35.0783L30.2262 33.0535L35.2848 35.0783C35.5342 35.178 35.8116 35.1824 36.0641 35.0906L37.3314 34.6299L37.3438 35.1562ZM12.1875 27.5C12.1875 27.2099 12.3027 26.9317 12.5079 26.7266C12.713 26.5215 12.9912 26.4062 13.2812 26.4062H41.7188C42.0088 26.4062 42.287 26.5215 42.4921 26.7266C42.6973 26.9317 42.8125 27.2099 42.8125 27.5C42.8125 27.7901 42.6973 28.0683 42.4921 28.2734C42.287 28.4785 42.0088 28.5938 41.7188 28.5938H13.2812C12.9912 28.5938 12.713 28.4785 12.5079 28.2734C12.3027 28.0683 12.1875 27.7901 12.1875 27.5Z" fill="white"/>
</svg>
