<svg width="35" height="35" viewBox="0 0 35 35" fill="none" xmlns="http://www.w3.org/2000/svg">
<path d="M29.9838 14.8586L19.0463 3.92108C18.6361 3.51116 18.0799 3.28088 17.5 3.28088C16.9201 3.28088 16.3639 3.51116 15.9537 3.92108L5.01622 14.8586C4.81211 15.0612 4.65031 15.3023 4.54023 15.568C4.43015 15.8337 4.37399 16.1186 4.37501 16.4062V29.5312C4.37501 29.8213 4.49025 30.0995 4.69537 30.3046C4.90048 30.5098 5.17868 30.625 5.46876 30.625H14.2188C14.5088 30.625 14.787 30.5098 14.9922 30.3046C15.1973 30.0995 15.3125 29.8213 15.3125 29.5312V21.875H19.6875V29.5312C19.6875 29.8213 19.8027 30.0995 20.0079 30.3046C20.213 30.5098 20.4912 30.625 20.7813 30.625H29.5313C29.8213 30.625 30.0995 30.5098 30.3047 30.3046C30.5098 30.0995 30.625 29.8213 30.625 29.5312V16.4062C30.626 16.1186 30.5699 15.8337 30.4598 15.568C30.3497 15.3023 30.1879 15.0612 29.9838 14.8586ZM28.4375 28.4375H21.875V20.7812C21.875 20.4912 21.7598 20.213 21.5547 20.0078C21.3495 19.8027 21.0713 19.6875 20.7813 19.6875H14.2188C13.9287 19.6875 13.6505 19.8027 13.4454 20.0078C13.2402 20.213 13.125 20.4912 13.125 20.7812V28.4375H6.56251V16.4062L17.5 5.46874L28.4375 16.4062V28.4375Z" fill="#9AA6B2"/>
</svg>
