<svg width="57" height="57" viewBox="0 0 57 57" fill="none" xmlns="http://www.w3.org/2000/svg">
<rect width="57" height="57" rx="28.5" fill="#EB5B00"/>
<g clip-path="url(#clip0_26_567)">
<path d="M32.9688 20.3906C32.9688 20.7151 32.8725 21.0323 32.6923 21.3021C32.512 21.5719 32.2558 21.7822 31.956 21.9064C31.6562 22.0305 31.3263 22.063 31.0081 21.9997C30.6898 21.9364 30.3975 21.7802 30.168 21.5507C29.9386 21.3213 29.7823 21.0289 29.719 20.7107C29.6557 20.3924 29.6882 20.0626 29.8124 19.7628C29.9366 19.463 30.1469 19.2068 30.4167 19.0265C30.6865 18.8462 31.0037 18.75 31.3281 18.75C31.7633 18.75 32.1806 18.9228 32.4882 19.2305C32.7959 19.5382 32.9688 19.9555 32.9688 20.3906ZM39.6297 29.6383C36.9815 34.4098 32.05 36.9883 24.968 37.3082L21.9602 44.3369C21.8756 44.5343 21.7349 44.7024 21.5555 44.8203C21.376 44.9382 21.1659 45.0007 20.9512 45H20.8815C20.6561 44.9859 20.4406 44.9023 20.2646 44.7608C20.0886 44.6194 19.9607 44.4268 19.8985 44.2098L17.875 37.1236L10.793 35.0961C10.5753 35.0349 10.3819 34.9078 10.2394 34.7322C10.0969 34.5567 10.0124 34.3412 9.9974 34.1156C9.98241 33.89 10.0377 33.6653 10.1557 33.4724C10.2737 33.2795 10.4486 33.1279 10.6563 33.0385L17.685 30.0307C18.0063 22.9514 20.5848 18.0213 25.3535 15.3717C28.7373 13.4932 32.5641 13.2061 35.1809 13.2963C37.7293 13.3838 40.1028 13.8801 40.4938 14.1166C40.6534 14.2107 40.7866 14.3438 40.8807 14.5035C41.1117 14.8932 41.6094 17.2666 41.701 19.815C41.794 22.4264 41.5082 26.2545 39.6297 29.6383ZM32.0856 33.6031C30.8218 33.1213 29.7213 32.2898 28.9126 31.2056C28.104 30.1215 27.6207 28.8295 27.5192 27.4809C26.1708 27.3795 24.8791 26.8964 23.7952 26.088C22.7113 25.2796 21.8799 24.1793 21.3983 22.9158C20.4458 25.0842 19.9308 27.7087 19.8533 30.7894C19.8485 30.9992 19.7834 31.2032 19.6658 31.377C19.5483 31.5508 19.3832 31.6872 19.1903 31.7697L14.3518 33.8396L19.0617 35.1877C19.2404 35.2389 19.4031 35.3348 19.5345 35.4664C19.6658 35.598 19.7614 35.7608 19.8123 35.9396L21.1576 40.6482L23.2303 35.8084C23.3131 35.6157 23.4495 35.4509 23.6233 35.3336C23.7971 35.2163 24.0009 35.1514 24.2106 35.1467C27.2886 35.0728 29.9136 34.5583 32.0856 33.6031ZM39.0418 15.9568C37.1072 15.5467 30.2781 14.4529 25.3289 17.9734C24.5098 18.5579 23.7739 19.251 23.1414 20.0338C23.0896 20.748 23.1943 21.4649 23.4481 22.1346C23.7019 22.8042 24.0988 23.4103 24.6111 23.9107C25.1233 24.4111 25.7386 24.7937 26.4139 25.0318C27.0893 25.2699 27.8085 25.3578 28.5213 25.2893C28.6819 25.2738 28.8439 25.294 28.9957 25.3486C29.1476 25.4031 29.2855 25.4905 29.3995 25.6046C29.5136 25.7186 29.601 25.8565 29.6556 26.0084C29.7101 26.1602 29.7303 26.3222 29.7149 26.4828C29.6465 27.1959 29.7346 27.9153 29.973 28.5908C30.2114 29.2663 30.5944 29.8816 31.0953 30.3938C31.5961 30.906 32.2027 31.3026 32.8727 31.5561C33.5427 31.8096 34.26 31.9137 34.9744 31.8613C35.7543 31.2287 36.4442 30.4928 37.0252 29.6738C40.5457 24.7287 39.452 17.8941 39.0418 15.9568Z" fill="white"/>
</g>
<defs>
<clipPath id="clip0_26_567">
<rect width="35" height="35" fill="white" transform="translate(10 10)"/>
</clipPath>
</defs>
</svg>
