<svg width="55" height="55" viewBox="0 0 55 55" fill="none" xmlns="http://www.w3.org/2000/svg">
<rect width="55" height="55" rx="27.5" fill="#EB5B00"/>
<path d="M20.9375 17.6562V13.2812C20.9375 12.9912 21.0527 12.713 21.2579 12.5079C21.463 12.3027 21.7412 12.1875 22.0312 12.1875C22.3213 12.1875 22.5995 12.3027 22.8046 12.5079C23.0098 12.713 23.125 12.9912 23.125 13.2812V17.6562C23.125 17.9463 23.0098 18.2245 22.8046 18.4296C22.5995 18.6348 22.3213 18.75 22.0312 18.75C21.7412 18.75 21.463 18.6348 21.2579 18.4296C21.0527 18.2245 20.9375 17.9463 20.9375 17.6562ZM26.4062 18.75C26.6963 18.75 26.9745 18.6348 27.1796 18.4296C27.3848 18.2245 27.5 17.9463 27.5 17.6562V13.2812C27.5 12.9912 27.3848 12.713 27.1796 12.5079C26.9745 12.3027 26.6963 12.1875 26.4062 12.1875C26.1162 12.1875 25.838 12.3027 25.6329 12.5079C25.4277 12.713 25.3125 12.9912 25.3125 13.2812V17.6562C25.3125 17.9463 25.4277 18.2245 25.6329 18.4296C25.838 18.6348 26.1162 18.75 26.4062 18.75ZM30.7812 18.75C31.0713 18.75 31.3495 18.6348 31.5546 18.4296C31.7598 18.2245 31.875 17.9463 31.875 17.6562V13.2812C31.875 12.9912 31.7598 12.713 31.5546 12.5079C31.3495 12.3027 31.0713 12.1875 30.7812 12.1875C30.4912 12.1875 30.213 12.3027 30.0079 12.5079C29.8027 12.713 29.6875 12.9912 29.6875 13.2812V17.6562C29.6875 17.9463 29.8027 18.2245 30.0079 18.4296C30.213 18.6348 30.4912 18.75 30.7812 18.75ZM43.9062 26.4062V27.5C43.9058 28.8912 43.3752 30.2299 42.4225 31.2436C41.4697 32.2573 40.1664 32.8698 38.7779 32.9564C38.0319 35.0668 36.7616 36.9529 35.0865 38.4375H38.4375C38.7276 38.4375 39.0058 38.5527 39.2109 38.7579C39.416 38.963 39.5312 39.2412 39.5312 39.5312C39.5312 39.8213 39.416 40.0995 39.2109 40.3046C39.0058 40.5098 38.7276 40.625 38.4375 40.625H14.375C14.0849 40.625 13.8067 40.5098 13.6016 40.3046C13.3965 40.0995 13.2812 39.8213 13.2812 39.5312C13.2812 39.2412 13.3965 38.963 13.6016 38.7579C13.8067 38.5527 14.0849 38.4375 14.375 38.4375H17.7301C16.3346 37.2046 15.2165 35.6897 14.4496 33.9929C13.6827 32.2961 13.2845 30.4558 13.2812 28.5938V22.0312C13.2812 21.7412 13.3965 21.463 13.6016 21.2579C13.8067 21.0527 14.0849 20.9375 14.375 20.9375H38.4375C39.8879 20.9375 41.2789 21.5137 42.3045 22.5393C43.3301 23.5648 43.9062 24.9558 43.9062 26.4062ZM37.3438 23.125H15.4688V28.5938C15.473 30.6474 16.0533 32.6586 17.1438 34.3988C18.2343 36.139 19.7912 37.5382 21.6375 38.4375H31.175C33.0213 37.5382 34.5782 36.139 35.6687 34.3988C36.7592 32.6586 37.3395 30.6474 37.3438 28.5938V23.125ZM41.7188 26.4062C41.7185 25.7279 41.5081 25.0662 41.1163 24.5124C40.7246 23.9586 40.1708 23.5398 39.5312 23.3137V28.5938C39.5304 29.2806 39.4756 29.9663 39.3672 30.6445C40.0458 30.444 40.6415 30.0295 41.0652 29.4628C41.489 28.8961 41.7183 28.2076 41.7188 27.5V26.4062Z" fill="white"/>
</svg>
