<svg width="35" height="35" viewBox="0 0 35 35" fill="none" xmlns="http://www.w3.org/2000/svg">
<path d="M24.3359 5.46875C21.5127 5.46875 19.0408 6.68281 17.5 8.73496C15.9592 6.68281 13.4873 5.46875 10.6641 5.46875C8.41672 5.47128 6.26214 6.36516 4.67303 7.95428C3.08391 9.54339 2.19003 11.698 2.1875 13.9453C2.1875 23.5156 16.3775 31.2621 16.9818 31.582C17.1411 31.6677 17.3191 31.7126 17.5 31.7126C17.6809 31.7126 17.8589 31.6677 18.0182 31.582C18.6225 31.2621 32.8125 23.5156 32.8125 13.9453C32.81 11.698 31.9161 9.54339 30.327 7.95428C28.7379 6.36516 26.5833 5.47128 24.3359 5.46875ZM17.5 29.3672C15.0035 27.9125 4.375 21.2857 4.375 13.9453C4.37717 12.278 5.04046 10.6796 6.21942 9.50067C7.39838 8.32171 8.99677 7.65842 10.6641 7.65625C13.3232 7.65625 15.5559 9.07266 16.4883 11.3477C16.5707 11.5483 16.7109 11.7198 16.891 11.8406C17.0712 11.9613 17.2831 12.0258 17.5 12.0258C17.7169 12.0258 17.9288 11.9613 18.109 11.8406C18.2891 11.7198 18.4293 11.5483 18.5117 11.3477C19.4441 9.06855 21.6768 7.65625 24.3359 7.65625C26.0032 7.65842 27.6016 8.32171 28.7806 9.50067C29.9595 10.6796 30.6228 12.278 30.625 13.9453C30.625 21.2748 19.9937 27.9111 17.5 29.3672Z" fill="#9AA6B2"/>
</svg>
